# xmcd
#
# Track frame offsets:
#	150
#	22623
#	40382
#	51812
#	70805
#	86554
#	100362
#	136104
#	152566
#	162498
#	181649
#	187161
#	222499
#	273973
#
# Disc length: 3985 seconds
#
# Revision: 1
# Processed by: cddbd v1.5.1PL2 Copyright (c) Steve Scherf et al.
# Submitted via: EasyCDDAExtractor 9.0.0.1
#
DISCID=ba0f8f0e
DTITLE=Alice Cooper - Metro Sports Arena Minneapolis 30-05-73
DYEAR=1973
DGENRE=Hard Rock
TTITLE0=Hello Hooray
TTITLE1=Billion Dollar Babies
TTITLE2=Elected
TTITLE3=Eighteen
TTITLE4=Raped and Freeze
TTITLE5=No More Mr Nice Guy
TTITLE6=My Stars
TTITLE7=Unfinished Sweet >
TTITLE8=Unfinished Sweet (Continued)
TTITLE9=Sick Things
TTITLE10=Dead Babies (Fade)
TTITLE11=I Love The Dead
TTITLE12=School's Out
TTITLE13=Under My Wheels
EXTD=
EXTT0=
EXTT1=
EXTT2=
EXTT3=
EXTT4=
EXTT5=
EXTT6=
EXTT7=
EXTT8=
EXTT9=
EXTT10=
EXTT11=
EXTT12=
EXTT13=
PLAYORDER=
